<?xml version="1.0" encoding="utf-8"?>
<!-- Generator: Adobe Illustrator 16.0.0, SVG Export Plug-In . SVG Version: 6.00 Build 0)  -->
<!DOCTYPE svg PUBLIC "-//W3C//DTD SVG 1.0//EN" "http://www.w3.org/TR/2001/REC-SVG-20010904/DTD/svg10.dtd">
<svg version="1.0" id="Layer_1" xmlns="http://www.w3.org/2000/svg" xmlns:xlink="http://www.w3.org/1999/xlink" x="0px" y="0px"
	 width="100px" height="100px" viewBox="0 0 100 100" enable-background="new 0 0 100 100" xml:space="preserve">
<path fill="#263238" d="M50,10L16.667,30v40L50,90l33.333-20V30L50,10z M76.667,66.225L50,82.227L23.333,66.225V33.773l26.667-16
	l26.667,16V66.225z"/>
<path fill="#263238" d="M35,50l15,15l15-15L50,35L35,50z M50,55.573L44.43,50L50,44.43L55.573,50L50,55.573z"/>
<path fill="#FFB74D" d="M50,28.333c-11.968,0-21.667,9.699-21.667,21.667c0,11.966,9.699,21.667,21.667,21.667
	c11.966,0,21.667-9.701,21.667-21.667C71.667,38.032,61.966,28.333,50,28.333z M50,65L50,65c-8.287,0-15-6.716-15-15
	c0-8.286,6.714-15,15-15l0,0c8.284,0.001,15,6.714,15,15C65,58.284,58.284,65,50,65z"/>
</svg>
